<mxfile host="app.diagrams.net" agent="Mozilla/5.0 (Macintosh; Intel Mac OS X 10_15_7) AppleWebKit/537.36 (KHTML, like Gecko) Chrome/127.0.0.0 Safari/537.36" version="24.7.4">
  <diagram id="C5RBs43oDa-KdzZeNtuy" name="Page-1">
    <mxGraphModel dx="1434" dy="837" grid="1" gridSize="10" guides="1" tooltips="1" connect="1" arrows="1" fold="1" page="1" pageScale="1" pageWidth="827" pageHeight="1169" math="0" shadow="0">
      <root>
        <mxCell id="WIyWlLk6GJQsqaUBKTNV-0" />
        <mxCell id="WIyWlLk6GJQsqaUBKTNV-1" parent="WIyWlLk6GJQsqaUBKTNV-0" />
        <mxCell id="lwHccidv2fWYTVkOevZk-1" value="" style="edgeStyle=orthogonalEdgeStyle;rounded=0;orthogonalLoop=1;jettySize=auto;html=1;entryX=0.5;entryY=0;entryDx=0;entryDy=0;" parent="WIyWlLk6GJQsqaUBKTNV-1" source="WIyWlLk6GJQsqaUBKTNV-3" target="lwHccidv2fWYTVkOevZk-0" edge="1">
          <mxGeometry relative="1" as="geometry" />
        </mxCell>
        <mxCell id="lwHccidv2fWYTVkOevZk-28" style="edgeStyle=orthogonalEdgeStyle;rounded=0;orthogonalLoop=1;jettySize=auto;html=1;entryX=0.5;entryY=0;entryDx=0;entryDy=0;" parent="WIyWlLk6GJQsqaUBKTNV-1" source="WIyWlLk6GJQsqaUBKTNV-3" target="lwHccidv2fWYTVkOevZk-19" edge="1">
          <mxGeometry relative="1" as="geometry" />
        </mxCell>
        <mxCell id="lwHccidv2fWYTVkOevZk-54" style="edgeStyle=orthogonalEdgeStyle;rounded=0;orthogonalLoop=1;jettySize=auto;html=1;entryX=0;entryY=0.5;entryDx=0;entryDy=0;exitX=1;exitY=0.5;exitDx=0;exitDy=0;" parent="WIyWlLk6GJQsqaUBKTNV-1" source="WIyWlLk6GJQsqaUBKTNV-3" target="lwHccidv2fWYTVkOevZk-39" edge="1">
          <mxGeometry relative="1" as="geometry" />
        </mxCell>
        <mxCell id="lwHccidv2fWYTVkOevZk-77" style="edgeStyle=orthogonalEdgeStyle;rounded=0;orthogonalLoop=1;jettySize=auto;html=1;entryX=0.5;entryY=0;entryDx=0;entryDy=0;" parent="WIyWlLk6GJQsqaUBKTNV-1" source="WIyWlLk6GJQsqaUBKTNV-3" target="Aem0WX8BvzpRNGFWT9OV-14" edge="1">
          <mxGeometry relative="1" as="geometry" />
        </mxCell>
        <mxCell id="WIyWlLk6GJQsqaUBKTNV-3" value="&lt;div style=&quot;line-height: 18px;&quot;&gt;BotFSM&lt;span style=&quot;font-family: Menlo, Monaco, &amp;quot;Courier New&amp;quot;, monospace; white-space: pre;&quot;&gt;:&lt;br/&gt; FSMUpdateBase&amp;lt;BotStates&amp;gt;&lt;/span&gt;&lt;/div&gt;" style="rounded=1;whiteSpace=wrap;html=1;fontSize=12;glass=0;strokeWidth=1;shadow=0;" parent="WIyWlLk6GJQsqaUBKTNV-1" vertex="1">
          <mxGeometry x="20" y="30" width="240" height="40" as="geometry" />
        </mxCell>
        <mxCell id="lwHccidv2fWYTVkOevZk-2" value="&lt;div&gt;{ States.Idle, new IdleState }&lt;/div&gt;&lt;div&gt;{ States.Chase, new ChaseState }&lt;/div&gt;&lt;div&gt;{ States.Attack, new AttackState }&lt;/div&gt;&lt;div style=&quot;&quot;&gt;{ States.Return, new ReturnState }&lt;/div&gt;" style="rounded=0;whiteSpace=wrap;html=1;align=left;" parent="WIyWlLk6GJQsqaUBKTNV-1" vertex="1">
          <mxGeometry x="20" y="70" width="210" height="60" as="geometry" />
        </mxCell>
        <mxCell id="lwHccidv2fWYTVkOevZk-38" style="edgeStyle=orthogonalEdgeStyle;rounded=0;orthogonalLoop=1;jettySize=auto;html=1;entryX=0.5;entryY=0;entryDx=0;entryDy=0;exitX=1;exitY=0.25;exitDx=0;exitDy=0;" parent="WIyWlLk6GJQsqaUBKTNV-1" source="lwHccidv2fWYTVkOevZk-39" target="Aem0WX8BvzpRNGFWT9OV-1" edge="1">
          <mxGeometry relative="1" as="geometry" />
        </mxCell>
        <mxCell id="lwHccidv2fWYTVkOevZk-39" value="&lt;div&gt;Attack&lt;/div&gt;" style="rounded=1;whiteSpace=wrap;html=1;glass=0;strokeWidth=1;shadow=0;fillColor=#d5e8d4;strokeColor=#82b366;" parent="WIyWlLk6GJQsqaUBKTNV-1" vertex="1">
          <mxGeometry x="301" y="310" width="120" height="20" as="geometry" />
        </mxCell>
        <mxCell id="3Ym4WqY_hZjeNqFPl6Wv-33" style="edgeStyle=orthogonalEdgeStyle;rounded=0;orthogonalLoop=1;jettySize=auto;html=1;entryX=0.5;entryY=0;entryDx=0;entryDy=0;" edge="1" parent="WIyWlLk6GJQsqaUBKTNV-1" source="Aem0WX8BvzpRNGFWT9OV-1" target="3Ym4WqY_hZjeNqFPl6Wv-30">
          <mxGeometry relative="1" as="geometry" />
        </mxCell>
        <mxCell id="3Ym4WqY_hZjeNqFPl6Wv-34" style="edgeStyle=orthogonalEdgeStyle;rounded=0;orthogonalLoop=1;jettySize=auto;html=1;exitX=1;exitY=0.5;exitDx=0;exitDy=0;entryX=0.5;entryY=0;entryDx=0;entryDy=0;" edge="1" parent="WIyWlLk6GJQsqaUBKTNV-1" source="Aem0WX8BvzpRNGFWT9OV-1" target="3Ym4WqY_hZjeNqFPl6Wv-31">
          <mxGeometry relative="1" as="geometry" />
        </mxCell>
        <mxCell id="3Ym4WqY_hZjeNqFPl6Wv-56" style="edgeStyle=orthogonalEdgeStyle;rounded=0;orthogonalLoop=1;jettySize=auto;html=1;exitX=1;exitY=0.5;exitDx=0;exitDy=0;entryX=0.5;entryY=0;entryDx=0;entryDy=0;" edge="1" parent="WIyWlLk6GJQsqaUBKTNV-1" source="Aem0WX8BvzpRNGFWT9OV-1" target="3Ym4WqY_hZjeNqFPl6Wv-55">
          <mxGeometry relative="1" as="geometry" />
        </mxCell>
        <mxCell id="Aem0WX8BvzpRNGFWT9OV-1" value="&lt;div style=&quot;line-height: 18px;&quot;&gt;AttackSubFSM&lt;span style=&quot;font-family: Menlo, Monaco, &amp;quot;Courier New&amp;quot;, monospace; white-space: pre;&quot;&gt;: &lt;br/&gt;StateMachineBase&amp;lt;BotStates&amp;gt;&lt;/span&gt;&lt;/div&gt;" style="rounded=1;whiteSpace=wrap;html=1;fontSize=12;glass=0;strokeWidth=1;shadow=0;" parent="WIyWlLk6GJQsqaUBKTNV-1" vertex="1">
          <mxGeometry x="366" y="340" width="240" height="40" as="geometry" />
        </mxCell>
        <mxCell id="Aem0WX8BvzpRNGFWT9OV-8" value="&lt;div&gt;{&amp;nbsp;&lt;span style=&quot;font-family: Menlo, Monaco, &amp;quot;Courier New&amp;quot;, monospace; white-space: pre;&quot;&gt;AttackSubStates&lt;/span&gt;.CountDown, new AttackCountDownSubState }&lt;br&gt;&lt;/div&gt;&lt;div&gt;{&amp;nbsp;&lt;span style=&quot;font-family: Menlo, Monaco, &amp;quot;Courier New&amp;quot;, monospace; white-space: pre;&quot;&gt;AttackSubStates&lt;/span&gt;.Hit, new AttackHitSubState }&lt;br&gt;&lt;/div&gt;&lt;div&gt;&lt;i&gt;{&amp;nbsp;&lt;/i&gt;&lt;span style=&quot;font-family: Menlo, Monaco, &amp;quot;Courier New&amp;quot;, monospace; white-space: pre;&quot;&gt;AttackSubStates&lt;/span&gt;&lt;i style=&quot;&quot;&gt;.Block, new AttackBlockSubState }&lt;/i&gt;&lt;br&gt;&lt;/div&gt;&lt;div style=&quot;&quot;&gt;&lt;i&gt;{&amp;nbsp;&lt;/i&gt;&lt;span style=&quot;font-family: Menlo, Monaco, &amp;quot;Courier New&amp;quot;, monospace; white-space: pre;&quot;&gt;AttackSubStates&lt;/span&gt;&lt;i style=&quot;&quot;&gt;.&lt;/i&gt;Return, new AttackRepositionSubState }&lt;br&gt;&lt;/div&gt;" style="rounded=0;whiteSpace=wrap;html=1;align=left;" parent="WIyWlLk6GJQsqaUBKTNV-1" vertex="1">
          <mxGeometry x="260" y="380" width="380" height="60" as="geometry" />
        </mxCell>
        <mxCell id="Aem0WX8BvzpRNGFWT9OV-11" value="AttackBlock" style="rounded=1;whiteSpace=wrap;html=1;glass=0;strokeWidth=1;shadow=0;fillColor=#d5e8d4;strokeColor=#82b366;" parent="WIyWlLk6GJQsqaUBKTNV-1" vertex="1">
          <mxGeometry x="680" y="460" width="120" height="20" as="geometry" />
        </mxCell>
        <mxCell id="Aem0WX8BvzpRNGFWT9OV-14" value="Return" style="swimlane;whiteSpace=wrap;html=1;" parent="WIyWlLk6GJQsqaUBKTNV-1" vertex="1" collapsed="1">
          <mxGeometry x="560" y="70" width="140" height="30" as="geometry">
            <mxRectangle x="560" y="70" width="564" height="280" as="alternateBounds" />
          </mxGeometry>
        </mxCell>
        <mxCell id="lwHccidv2fWYTVkOevZk-59" style="edgeStyle=orthogonalEdgeStyle;rounded=0;orthogonalLoop=1;jettySize=auto;html=1;entryX=0.5;entryY=0;entryDx=0;entryDy=0;exitX=1;exitY=0.25;exitDx=0;exitDy=0;" parent="Aem0WX8BvzpRNGFWT9OV-14" source="lwHccidv2fWYTVkOevZk-60" target="lwHccidv2fWYTVkOevZk-65" edge="1">
          <mxGeometry relative="1" as="geometry" />
        </mxCell>
        <mxCell id="lwHccidv2fWYTVkOevZk-60" value="&lt;div&gt;Return&lt;/div&gt;" style="rounded=1;whiteSpace=wrap;html=1;glass=0;strokeWidth=1;shadow=0;fillColor=#d5e8d4;strokeColor=#82b366;" parent="Aem0WX8BvzpRNGFWT9OV-14" vertex="1">
          <mxGeometry x="5" y="30" width="120" height="20" as="geometry" />
        </mxCell>
        <mxCell id="lwHccidv2fWYTVkOevZk-61" value="" style="edgeStyle=orthogonalEdgeStyle;rounded=0;orthogonalLoop=1;jettySize=auto;html=1;exitX=0;exitY=0.5;exitDx=0;exitDy=0;entryX=0.5;entryY=0;entryDx=0;entryDy=0;" parent="Aem0WX8BvzpRNGFWT9OV-14" source="lwHccidv2fWYTVkOevZk-65" target="lwHccidv2fWYTVkOevZk-70" edge="1">
          <mxGeometry relative="1" as="geometry">
            <mxPoint x="270" y="110" as="sourcePoint" />
          </mxGeometry>
        </mxCell>
        <mxCell id="lwHccidv2fWYTVkOevZk-62" value="No" style="edgeLabel;html=1;align=center;verticalAlign=middle;resizable=0;points=[];" parent="lwHccidv2fWYTVkOevZk-61" vertex="1" connectable="0">
          <mxGeometry x="-0.0857" relative="1" as="geometry">
            <mxPoint as="offset" />
          </mxGeometry>
        </mxCell>
        <mxCell id="lwHccidv2fWYTVkOevZk-63" style="edgeStyle=orthogonalEdgeStyle;rounded=0;orthogonalLoop=1;jettySize=auto;html=1;" parent="Aem0WX8BvzpRNGFWT9OV-14" source="lwHccidv2fWYTVkOevZk-65" target="lwHccidv2fWYTVkOevZk-73" edge="1">
          <mxGeometry relative="1" as="geometry">
            <mxPoint x="455" y="110" as="targetPoint" />
          </mxGeometry>
        </mxCell>
        <mxCell id="lwHccidv2fWYTVkOevZk-64" value="Yes" style="edgeLabel;html=1;align=center;verticalAlign=middle;resizable=0;points=[];" parent="lwHccidv2fWYTVkOevZk-63" vertex="1" connectable="0">
          <mxGeometry x="-0.2889" relative="1" as="geometry">
            <mxPoint as="offset" />
          </mxGeometry>
        </mxCell>
        <mxCell id="lwHccidv2fWYTVkOevZk-65" value="CloseToSpawn&lt;div&gt;Poin&lt;/div&gt;" style="rhombus;whiteSpace=wrap;html=1;shadow=0;fontFamily=Helvetica;fontSize=12;align=center;strokeWidth=1;spacing=6;spacingTop=-4;" parent="Aem0WX8BvzpRNGFWT9OV-14" vertex="1">
          <mxGeometry x="290" y="70" width="100" height="80" as="geometry" />
        </mxCell>
        <mxCell id="lwHccidv2fWYTVkOevZk-66" style="edgeStyle=orthogonalEdgeStyle;rounded=0;orthogonalLoop=1;jettySize=auto;html=1;exitX=0;exitY=0.5;exitDx=0;exitDy=0;entryX=0.4;entryY=0;entryDx=0;entryDy=0;entryPerimeter=0;" parent="Aem0WX8BvzpRNGFWT9OV-14" source="lwHccidv2fWYTVkOevZk-70" target="lwHccidv2fWYTVkOevZk-72" edge="1">
          <mxGeometry relative="1" as="geometry">
            <mxPoint x="125" y="190" as="targetPoint" />
          </mxGeometry>
        </mxCell>
        <mxCell id="lwHccidv2fWYTVkOevZk-67" value="No" style="edgeLabel;html=1;align=center;verticalAlign=middle;resizable=0;points=[];" parent="lwHccidv2fWYTVkOevZk-66" vertex="1" connectable="0">
          <mxGeometry x="-0.4725" y="-3" relative="1" as="geometry">
            <mxPoint as="offset" />
          </mxGeometry>
        </mxCell>
        <mxCell id="lwHccidv2fWYTVkOevZk-68" style="edgeStyle=orthogonalEdgeStyle;rounded=0;orthogonalLoop=1;jettySize=auto;html=1;entryX=0;entryY=0.5;entryDx=0;entryDy=0;" parent="Aem0WX8BvzpRNGFWT9OV-14" source="lwHccidv2fWYTVkOevZk-70" target="lwHccidv2fWYTVkOevZk-74" edge="1">
          <mxGeometry relative="1" as="geometry" />
        </mxCell>
        <mxCell id="lwHccidv2fWYTVkOevZk-69" value="Yes" style="edgeLabel;html=1;align=center;verticalAlign=middle;resizable=0;points=[];" parent="lwHccidv2fWYTVkOevZk-68" vertex="1" connectable="0">
          <mxGeometry x="-0.3333" relative="1" as="geometry">
            <mxPoint as="offset" />
          </mxGeometry>
        </mxCell>
        <mxCell id="lwHccidv2fWYTVkOevZk-70" value="Chase&lt;br&gt;Range" style="rhombus;whiteSpace=wrap;html=1;shadow=0;fontFamily=Helvetica;fontSize=12;align=center;strokeWidth=1;spacing=6;spacingTop=-4;" parent="Aem0WX8BvzpRNGFWT9OV-14" vertex="1">
          <mxGeometry x="170" y="130" width="100" height="80" as="geometry" />
        </mxCell>
        <mxCell id="lwHccidv2fWYTVkOevZk-71" style="edgeStyle=orthogonalEdgeStyle;rounded=0;orthogonalLoop=1;jettySize=auto;html=1;entryX=0.5;entryY=1;entryDx=0;entryDy=0;exitX=0.5;exitY=1;exitDx=0;exitDy=0;" parent="Aem0WX8BvzpRNGFWT9OV-14" source="lwHccidv2fWYTVkOevZk-72" target="lwHccidv2fWYTVkOevZk-60" edge="1">
          <mxGeometry relative="1" as="geometry" />
        </mxCell>
        <mxCell id="lwHccidv2fWYTVkOevZk-72" value="&lt;div&gt;CalculateInput(&lt;b&gt;spawn&lt;/b&gt;)&lt;/div&gt;" style="rounded=0;whiteSpace=wrap;html=1;align=left;" parent="Aem0WX8BvzpRNGFWT9OV-14" vertex="1">
          <mxGeometry x="85" y="220" width="130" height="30" as="geometry" />
        </mxCell>
        <mxCell id="lwHccidv2fWYTVkOevZk-73" value="Idle" style="rounded=1;whiteSpace=wrap;html=1;fillColor=#fff2cc;strokeColor=#d6b656;" parent="Aem0WX8BvzpRNGFWT9OV-14" vertex="1">
          <mxGeometry x="435" y="100" width="120" height="20" as="geometry" />
        </mxCell>
        <mxCell id="lwHccidv2fWYTVkOevZk-74" value="Chase" style="rounded=1;whiteSpace=wrap;html=1;fillColor=#fff2cc;strokeColor=#d6b656;" parent="Aem0WX8BvzpRNGFWT9OV-14" vertex="1">
          <mxGeometry x="315" y="160" width="120" height="20" as="geometry" />
        </mxCell>
        <mxCell id="Aem0WX8BvzpRNGFWT9OV-15" value="Chase" style="swimlane;whiteSpace=wrap;html=1;" parent="WIyWlLk6GJQsqaUBKTNV-1" vertex="1" collapsed="1">
          <mxGeometry x="460" y="70" width="80" height="30" as="geometry">
            <mxRectangle x="460" y="70" width="550" height="280" as="alternateBounds" />
          </mxGeometry>
        </mxCell>
        <mxCell id="lwHccidv2fWYTVkOevZk-18" style="edgeStyle=orthogonalEdgeStyle;rounded=0;orthogonalLoop=1;jettySize=auto;html=1;entryX=0.5;entryY=0;entryDx=0;entryDy=0;exitX=1;exitY=0.25;exitDx=0;exitDy=0;" parent="Aem0WX8BvzpRNGFWT9OV-15" source="lwHccidv2fWYTVkOevZk-19" target="lwHccidv2fWYTVkOevZk-22" edge="1">
          <mxGeometry relative="1" as="geometry" />
        </mxCell>
        <mxCell id="lwHccidv2fWYTVkOevZk-19" value="&lt;div&gt;Chase&lt;/div&gt;" style="rounded=1;whiteSpace=wrap;html=1;glass=0;strokeWidth=1;shadow=0;fillColor=#d5e8d4;strokeColor=#82b366;" parent="Aem0WX8BvzpRNGFWT9OV-15" vertex="1">
          <mxGeometry x="7" y="30" width="120" height="20" as="geometry" />
        </mxCell>
        <mxCell id="lwHccidv2fWYTVkOevZk-20" value="" style="edgeStyle=orthogonalEdgeStyle;rounded=0;orthogonalLoop=1;jettySize=auto;html=1;exitX=0;exitY=0.5;exitDx=0;exitDy=0;entryX=0.5;entryY=0;entryDx=0;entryDy=0;" parent="Aem0WX8BvzpRNGFWT9OV-15" source="lwHccidv2fWYTVkOevZk-22" target="lwHccidv2fWYTVkOevZk-24" edge="1">
          <mxGeometry relative="1" as="geometry">
            <mxPoint x="255" y="110" as="sourcePoint" />
          </mxGeometry>
        </mxCell>
        <mxCell id="lwHccidv2fWYTVkOevZk-21" value="No" style="edgeLabel;html=1;align=center;verticalAlign=middle;resizable=0;points=[];" parent="lwHccidv2fWYTVkOevZk-20" vertex="1" connectable="0">
          <mxGeometry x="-0.0857" relative="1" as="geometry">
            <mxPoint as="offset" />
          </mxGeometry>
        </mxCell>
        <mxCell id="lwHccidv2fWYTVkOevZk-30" style="edgeStyle=orthogonalEdgeStyle;rounded=0;orthogonalLoop=1;jettySize=auto;html=1;" parent="Aem0WX8BvzpRNGFWT9OV-15" source="lwHccidv2fWYTVkOevZk-22" target="lwHccidv2fWYTVkOevZk-31" edge="1">
          <mxGeometry relative="1" as="geometry">
            <mxPoint x="440" y="110" as="targetPoint" />
          </mxGeometry>
        </mxCell>
        <mxCell id="lwHccidv2fWYTVkOevZk-35" value="Yes" style="edgeLabel;html=1;align=center;verticalAlign=middle;resizable=0;points=[];" parent="lwHccidv2fWYTVkOevZk-30" vertex="1" connectable="0">
          <mxGeometry x="-0.2889" relative="1" as="geometry">
            <mxPoint as="offset" />
          </mxGeometry>
        </mxCell>
        <mxCell id="lwHccidv2fWYTVkOevZk-22" value="Attack&lt;div&gt;Range&lt;/div&gt;" style="rhombus;whiteSpace=wrap;html=1;shadow=0;fontFamily=Helvetica;fontSize=12;align=center;strokeWidth=1;spacing=6;spacingTop=-4;" parent="Aem0WX8BvzpRNGFWT9OV-15" vertex="1">
          <mxGeometry x="275" y="70" width="100" height="80" as="geometry" />
        </mxCell>
        <mxCell id="lwHccidv2fWYTVkOevZk-23" style="edgeStyle=orthogonalEdgeStyle;rounded=0;orthogonalLoop=1;jettySize=auto;html=1;exitX=0;exitY=0.5;exitDx=0;exitDy=0;entryX=0.4;entryY=0;entryDx=0;entryDy=0;entryPerimeter=0;" parent="Aem0WX8BvzpRNGFWT9OV-15" source="lwHccidv2fWYTVkOevZk-24" target="lwHccidv2fWYTVkOevZk-25" edge="1">
          <mxGeometry relative="1" as="geometry">
            <mxPoint x="110" y="190" as="targetPoint" />
          </mxGeometry>
        </mxCell>
        <mxCell id="lwHccidv2fWYTVkOevZk-34" value="No" style="edgeLabel;html=1;align=center;verticalAlign=middle;resizable=0;points=[];" parent="lwHccidv2fWYTVkOevZk-23" vertex="1" connectable="0">
          <mxGeometry x="-0.4725" y="-3" relative="1" as="geometry">
            <mxPoint as="offset" />
          </mxGeometry>
        </mxCell>
        <mxCell id="lwHccidv2fWYTVkOevZk-33" style="edgeStyle=orthogonalEdgeStyle;rounded=0;orthogonalLoop=1;jettySize=auto;html=1;entryX=0;entryY=0.5;entryDx=0;entryDy=0;" parent="Aem0WX8BvzpRNGFWT9OV-15" source="lwHccidv2fWYTVkOevZk-24" target="lwHccidv2fWYTVkOevZk-32" edge="1">
          <mxGeometry relative="1" as="geometry" />
        </mxCell>
        <mxCell id="lwHccidv2fWYTVkOevZk-37" value="Yes" style="edgeLabel;html=1;align=center;verticalAlign=middle;resizable=0;points=[];" parent="lwHccidv2fWYTVkOevZk-33" vertex="1" connectable="0">
          <mxGeometry x="-0.3333" relative="1" as="geometry">
            <mxPoint as="offset" />
          </mxGeometry>
        </mxCell>
        <mxCell id="lwHccidv2fWYTVkOevZk-24" value="Chase&lt;b&gt;Stop&lt;/b&gt;&lt;br&gt;Range" style="rhombus;whiteSpace=wrap;html=1;shadow=0;fontFamily=Helvetica;fontSize=12;align=center;strokeWidth=1;spacing=6;spacingTop=-4;" parent="Aem0WX8BvzpRNGFWT9OV-15" vertex="1">
          <mxGeometry x="155" y="130" width="100" height="80" as="geometry" />
        </mxCell>
        <mxCell id="lwHccidv2fWYTVkOevZk-29" style="edgeStyle=orthogonalEdgeStyle;rounded=0;orthogonalLoop=1;jettySize=auto;html=1;entryX=0.5;entryY=1;entryDx=0;entryDy=0;exitX=0.5;exitY=1;exitDx=0;exitDy=0;" parent="Aem0WX8BvzpRNGFWT9OV-15" source="lwHccidv2fWYTVkOevZk-25" target="lwHccidv2fWYTVkOevZk-19" edge="1">
          <mxGeometry relative="1" as="geometry">
            <Array as="points">
              <mxPoint x="145" y="270" />
              <mxPoint x="67" y="270" />
            </Array>
          </mxGeometry>
        </mxCell>
        <mxCell id="lwHccidv2fWYTVkOevZk-25" value="&lt;div&gt;CalculateInput(&lt;b&gt;target&lt;/b&gt;)&lt;/div&gt;" style="rounded=0;whiteSpace=wrap;html=1;align=left;" parent="Aem0WX8BvzpRNGFWT9OV-15" vertex="1">
          <mxGeometry x="80" y="220" width="130" height="30" as="geometry" />
        </mxCell>
        <mxCell id="lwHccidv2fWYTVkOevZk-31" value="Attack" style="rounded=1;whiteSpace=wrap;html=1;fillColor=#fff2cc;strokeColor=#d6b656;" parent="Aem0WX8BvzpRNGFWT9OV-15" vertex="1">
          <mxGeometry x="420" y="100" width="120" height="20" as="geometry" />
        </mxCell>
        <mxCell id="lwHccidv2fWYTVkOevZk-32" value="Return" style="rounded=1;whiteSpace=wrap;html=1;fillColor=#fff2cc;strokeColor=#d6b656;" parent="Aem0WX8BvzpRNGFWT9OV-15" vertex="1">
          <mxGeometry x="300" y="160" width="120" height="20" as="geometry" />
        </mxCell>
        <mxCell id="Aem0WX8BvzpRNGFWT9OV-17" value="Idle" style="swimlane;whiteSpace=wrap;html=1;fillColor=#FFFFFF;rounded=0;" parent="WIyWlLk6GJQsqaUBKTNV-1" vertex="1" collapsed="1">
          <mxGeometry x="301" y="70" width="140" height="30" as="geometry">
            <mxRectangle x="301" y="70" width="370" height="200" as="alternateBounds" />
          </mxGeometry>
        </mxCell>
        <mxCell id="lwHccidv2fWYTVkOevZk-6" style="edgeStyle=orthogonalEdgeStyle;rounded=0;orthogonalLoop=1;jettySize=auto;html=1;entryX=0.5;entryY=1;entryDx=0;entryDy=0;exitX=0;exitY=0.5;exitDx=0;exitDy=0;" parent="Aem0WX8BvzpRNGFWT9OV-17" source="WIyWlLk6GJQsqaUBKTNV-6" target="lwHccidv2fWYTVkOevZk-0" edge="1">
          <mxGeometry relative="1" as="geometry" />
        </mxCell>
        <mxCell id="lwHccidv2fWYTVkOevZk-7" value="No" style="edgeLabel;html=1;align=center;verticalAlign=middle;resizable=0;points=[];" parent="lwHccidv2fWYTVkOevZk-6" vertex="1" connectable="0">
          <mxGeometry x="-0.4151" y="-1" relative="1" as="geometry">
            <mxPoint as="offset" />
          </mxGeometry>
        </mxCell>
        <mxCell id="lwHccidv2fWYTVkOevZk-9" value="Yes" style="edgeStyle=orthogonalEdgeStyle;rounded=0;orthogonalLoop=1;jettySize=auto;html=1;entryX=0;entryY=0.5;entryDx=0;entryDy=0;" parent="Aem0WX8BvzpRNGFWT9OV-17" source="WIyWlLk6GJQsqaUBKTNV-6" target="lwHccidv2fWYTVkOevZk-8" edge="1">
          <mxGeometry relative="1" as="geometry" />
        </mxCell>
        <mxCell id="WIyWlLk6GJQsqaUBKTNV-6" value="Chase&lt;div&gt;Range&lt;/div&gt;" style="rhombus;whiteSpace=wrap;html=1;shadow=0;fontFamily=Helvetica;fontSize=12;align=center;strokeWidth=1;spacing=6;spacingTop=-4;" parent="Aem0WX8BvzpRNGFWT9OV-17" vertex="1">
          <mxGeometry x="96" y="70" width="100" height="80" as="geometry" />
        </mxCell>
        <mxCell id="lwHccidv2fWYTVkOevZk-5" style="edgeStyle=orthogonalEdgeStyle;rounded=0;orthogonalLoop=1;jettySize=auto;html=1;exitX=1;exitY=0.75;exitDx=0;exitDy=0;" parent="Aem0WX8BvzpRNGFWT9OV-17" source="lwHccidv2fWYTVkOevZk-0" target="WIyWlLk6GJQsqaUBKTNV-6" edge="1">
          <mxGeometry relative="1" as="geometry">
            <Array as="points">
              <mxPoint x="150" y="45" />
            </Array>
          </mxGeometry>
        </mxCell>
        <mxCell id="lwHccidv2fWYTVkOevZk-0" value="&lt;div&gt;Idle&lt;/div&gt;" style="rounded=1;whiteSpace=wrap;html=1;glass=0;strokeWidth=1;shadow=0;fillColor=#d5e8d4;strokeColor=#82b366;" parent="Aem0WX8BvzpRNGFWT9OV-17" vertex="1">
          <mxGeometry x="10" y="30" width="120" height="20" as="geometry" />
        </mxCell>
        <mxCell id="lwHccidv2fWYTVkOevZk-8" value="&lt;div&gt;Chase&lt;/div&gt;" style="rounded=1;whiteSpace=wrap;html=1;glass=0;strokeWidth=1;shadow=0;fillColor=#fff2cc;strokeColor=#d6b656;" parent="Aem0WX8BvzpRNGFWT9OV-17" vertex="1">
          <mxGeometry x="236" y="100" width="120" height="20" as="geometry" />
        </mxCell>
        <mxCell id="3Ym4WqY_hZjeNqFPl6Wv-30" value="AttackCountDown" style="swimlane;whiteSpace=wrap;html=1;" vertex="1" collapsed="1" parent="WIyWlLk6GJQsqaUBKTNV-1">
          <mxGeometry x="680" y="380" width="140" height="30" as="geometry">
            <mxRectangle x="680" y="380" width="660" height="400" as="alternateBounds" />
          </mxGeometry>
        </mxCell>
        <mxCell id="Aem0WX8BvzpRNGFWT9OV-2" style="edgeStyle=orthogonalEdgeStyle;rounded=0;orthogonalLoop=1;jettySize=auto;html=1;entryX=0.5;entryY=1;entryDx=0;entryDy=0;exitX=0;exitY=0.5;exitDx=0;exitDy=0;" parent="3Ym4WqY_hZjeNqFPl6Wv-30" source="Aem0WX8BvzpRNGFWT9OV-5" target="Aem0WX8BvzpRNGFWT9OV-7" edge="1">
          <mxGeometry relative="1" as="geometry" />
        </mxCell>
        <mxCell id="Aem0WX8BvzpRNGFWT9OV-3" value="No" style="edgeLabel;html=1;align=center;verticalAlign=middle;resizable=0;points=[];" parent="Aem0WX8BvzpRNGFWT9OV-2" vertex="1" connectable="0">
          <mxGeometry x="-0.4151" y="-1" relative="1" as="geometry">
            <mxPoint as="offset" />
          </mxGeometry>
        </mxCell>
        <mxCell id="Aem0WX8BvzpRNGFWT9OV-4" value="Yes" style="edgeStyle=orthogonalEdgeStyle;rounded=0;orthogonalLoop=1;jettySize=auto;html=1;entryX=0.5;entryY=0;entryDx=0;entryDy=0;" parent="3Ym4WqY_hZjeNqFPl6Wv-30" source="Aem0WX8BvzpRNGFWT9OV-5" target="3Ym4WqY_hZjeNqFPl6Wv-0" edge="1">
          <mxGeometry relative="1" as="geometry" />
        </mxCell>
        <mxCell id="Aem0WX8BvzpRNGFWT9OV-5" value="_shouldExit" style="rhombus;whiteSpace=wrap;html=1;shadow=0;fontFamily=Helvetica;fontSize=12;align=center;strokeWidth=1;spacing=6;spacingTop=-4;" parent="3Ym4WqY_hZjeNqFPl6Wv-30" vertex="1">
          <mxGeometry x="156.5" y="70" width="100" height="80" as="geometry" />
        </mxCell>
        <mxCell id="Aem0WX8BvzpRNGFWT9OV-6" style="edgeStyle=orthogonalEdgeStyle;rounded=0;orthogonalLoop=1;jettySize=auto;html=1;exitX=1;exitY=0.75;exitDx=0;exitDy=0;" parent="3Ym4WqY_hZjeNqFPl6Wv-30" source="Aem0WX8BvzpRNGFWT9OV-7" target="Aem0WX8BvzpRNGFWT9OV-5" edge="1">
          <mxGeometry relative="1" as="geometry">
            <Array as="points">
              <mxPoint x="210.5" y="45" />
            </Array>
          </mxGeometry>
        </mxCell>
        <mxCell id="Aem0WX8BvzpRNGFWT9OV-7" value="&lt;div&gt;Attack&lt;span style=&quot;background-color: initial;&quot;&gt;CountDown&lt;/span&gt;&lt;/div&gt;" style="rounded=1;whiteSpace=wrap;html=1;glass=0;strokeWidth=1;shadow=0;fillColor=#d5e8d4;strokeColor=#82b366;" parent="3Ym4WqY_hZjeNqFPl6Wv-30" vertex="1">
          <mxGeometry x="70.5" y="30" width="120" height="20" as="geometry" />
        </mxCell>
        <mxCell id="Aem0WX8BvzpRNGFWT9OV-9" value="&lt;div&gt;AttackHit&lt;/div&gt;" style="rounded=1;whiteSpace=wrap;html=1;glass=0;strokeWidth=1;shadow=0;fillColor=#fff2cc;strokeColor=#d6b656;" parent="3Ym4WqY_hZjeNqFPl6Wv-30" vertex="1">
          <mxGeometry x="510.5" y="330" width="120" height="20" as="geometry" />
        </mxCell>
        <mxCell id="3Ym4WqY_hZjeNqFPl6Wv-1" style="edgeStyle=orthogonalEdgeStyle;rounded=0;orthogonalLoop=1;jettySize=auto;html=1;exitX=1;exitY=0.5;exitDx=0;exitDy=0;entryX=0.5;entryY=0;entryDx=0;entryDy=0;" edge="1" parent="3Ym4WqY_hZjeNqFPl6Wv-30" source="3Ym4WqY_hZjeNqFPl6Wv-0" target="3Ym4WqY_hZjeNqFPl6Wv-3">
          <mxGeometry relative="1" as="geometry">
            <mxPoint x="469.5" y="170" as="targetPoint" />
          </mxGeometry>
        </mxCell>
        <mxCell id="3Ym4WqY_hZjeNqFPl6Wv-2" value="Yes" style="edgeLabel;html=1;align=center;verticalAlign=middle;resizable=0;points=[];" vertex="1" connectable="0" parent="3Ym4WqY_hZjeNqFPl6Wv-1">
          <mxGeometry x="-0.3364" y="2" relative="1" as="geometry">
            <mxPoint x="1" as="offset" />
          </mxGeometry>
        </mxCell>
        <mxCell id="3Ym4WqY_hZjeNqFPl6Wv-12" style="edgeStyle=orthogonalEdgeStyle;rounded=0;orthogonalLoop=1;jettySize=auto;html=1;exitX=0;exitY=0.5;exitDx=0;exitDy=0;entryX=0.5;entryY=0;entryDx=0;entryDy=0;" edge="1" parent="3Ym4WqY_hZjeNqFPl6Wv-30" source="3Ym4WqY_hZjeNqFPl6Wv-0" target="3Ym4WqY_hZjeNqFPl6Wv-7">
          <mxGeometry relative="1" as="geometry" />
        </mxCell>
        <mxCell id="3Ym4WqY_hZjeNqFPl6Wv-13" value="No" style="edgeLabel;html=1;align=center;verticalAlign=middle;resizable=0;points=[];" vertex="1" connectable="0" parent="3Ym4WqY_hZjeNqFPl6Wv-12">
          <mxGeometry x="-0.5223" relative="1" as="geometry">
            <mxPoint as="offset" />
          </mxGeometry>
        </mxCell>
        <mxCell id="3Ym4WqY_hZjeNqFPl6Wv-0" value="target is Attaking" style="rhombus;whiteSpace=wrap;html=1;shadow=0;fontFamily=Helvetica;fontSize=12;align=center;strokeWidth=1;spacing=6;spacingTop=-4;" vertex="1" parent="3Ym4WqY_hZjeNqFPl6Wv-30">
          <mxGeometry x="260" y="130" width="100" height="80" as="geometry" />
        </mxCell>
        <mxCell id="3Ym4WqY_hZjeNqFPl6Wv-15" style="edgeStyle=orthogonalEdgeStyle;rounded=0;orthogonalLoop=1;jettySize=auto;html=1;exitX=0.5;exitY=1;exitDx=0;exitDy=0;entryX=0.5;entryY=0;entryDx=0;entryDy=0;" edge="1" parent="3Ym4WqY_hZjeNqFPl6Wv-30" source="3Ym4WqY_hZjeNqFPl6Wv-3" target="3Ym4WqY_hZjeNqFPl6Wv-14">
          <mxGeometry relative="1" as="geometry" />
        </mxCell>
        <mxCell id="3Ym4WqY_hZjeNqFPl6Wv-3" value="&lt;div&gt;RandomReaction&lt;/div&gt;" style="rounded=0;whiteSpace=wrap;html=1;align=left;" vertex="1" parent="3Ym4WqY_hZjeNqFPl6Wv-30">
          <mxGeometry x="400.5" y="190" width="119" height="30" as="geometry" />
        </mxCell>
        <mxCell id="3Ym4WqY_hZjeNqFPl6Wv-6" style="edgeStyle=orthogonalEdgeStyle;rounded=0;orthogonalLoop=1;jettySize=auto;html=1;exitX=1;exitY=0.5;exitDx=0;exitDy=0;" edge="1" parent="3Ym4WqY_hZjeNqFPl6Wv-30" source="3Ym4WqY_hZjeNqFPl6Wv-5">
          <mxGeometry relative="1" as="geometry">
            <mxPoint x="69.5" y="40" as="targetPoint" />
          </mxGeometry>
        </mxCell>
        <mxCell id="3Ym4WqY_hZjeNqFPl6Wv-5" value="ReEnter" style="rounded=1;whiteSpace=wrap;html=1;glass=0;strokeWidth=1;shadow=0;fillColor=#d5e8d4;strokeColor=#82b366;" vertex="1" parent="3Ym4WqY_hZjeNqFPl6Wv-30">
          <mxGeometry x="9.5" y="30" width="39" height="20" as="geometry" />
        </mxCell>
        <mxCell id="3Ym4WqY_hZjeNqFPl6Wv-8" style="edgeStyle=orthogonalEdgeStyle;rounded=0;orthogonalLoop=1;jettySize=auto;html=1;exitX=0;exitY=0.5;exitDx=0;exitDy=0;entryX=0.5;entryY=1;entryDx=0;entryDy=0;" edge="1" parent="3Ym4WqY_hZjeNqFPl6Wv-30" source="3Ym4WqY_hZjeNqFPl6Wv-7" target="Aem0WX8BvzpRNGFWT9OV-7">
          <mxGeometry relative="1" as="geometry" />
        </mxCell>
        <mxCell id="3Ym4WqY_hZjeNqFPl6Wv-9" value="No" style="edgeLabel;html=1;align=center;verticalAlign=middle;resizable=0;points=[];" vertex="1" connectable="0" parent="3Ym4WqY_hZjeNqFPl6Wv-8">
          <mxGeometry x="-0.7436" y="-1" relative="1" as="geometry">
            <mxPoint as="offset" />
          </mxGeometry>
        </mxCell>
        <mxCell id="3Ym4WqY_hZjeNqFPl6Wv-10" style="edgeStyle=orthogonalEdgeStyle;rounded=0;orthogonalLoop=1;jettySize=auto;html=1;exitX=1;exitY=0.5;exitDx=0;exitDy=0;" edge="1" parent="3Ym4WqY_hZjeNqFPl6Wv-30" source="3Ym4WqY_hZjeNqFPl6Wv-7" target="3Ym4WqY_hZjeNqFPl6Wv-5">
          <mxGeometry relative="1" as="geometry">
            <Array as="points">
              <mxPoint x="299.5" y="290" />
              <mxPoint x="299.5" y="340" />
              <mxPoint x="29.5" y="340" />
            </Array>
          </mxGeometry>
        </mxCell>
        <mxCell id="3Ym4WqY_hZjeNqFPl6Wv-11" value="Yes" style="edgeLabel;html=1;align=center;verticalAlign=middle;resizable=0;points=[];" vertex="1" connectable="0" parent="3Ym4WqY_hZjeNqFPl6Wv-10">
          <mxGeometry x="-0.9766" y="1" relative="1" as="geometry">
            <mxPoint as="offset" />
          </mxGeometry>
        </mxCell>
        <mxCell id="3Ym4WqY_hZjeNqFPl6Wv-7" value="timer" style="rhombus;whiteSpace=wrap;html=1;shadow=0;fontFamily=Helvetica;fontSize=12;align=center;strokeWidth=1;spacing=6;spacingTop=-4;" vertex="1" parent="3Ym4WqY_hZjeNqFPl6Wv-30">
          <mxGeometry x="166.5" y="250" width="100" height="80" as="geometry" />
        </mxCell>
        <mxCell id="3Ym4WqY_hZjeNqFPl6Wv-16" style="edgeStyle=orthogonalEdgeStyle;rounded=0;orthogonalLoop=1;jettySize=auto;html=1;exitX=0;exitY=0.5;exitDx=0;exitDy=0;entryX=0.5;entryY=1;entryDx=0;entryDy=0;" edge="1" parent="3Ym4WqY_hZjeNqFPl6Wv-30" source="3Ym4WqY_hZjeNqFPl6Wv-14" target="Aem0WX8BvzpRNGFWT9OV-7">
          <mxGeometry relative="1" as="geometry">
            <Array as="points">
              <mxPoint x="359.5" y="290" />
              <mxPoint x="359.5" y="360" />
              <mxPoint x="130.5" y="360" />
            </Array>
          </mxGeometry>
        </mxCell>
        <mxCell id="3Ym4WqY_hZjeNqFPl6Wv-17" value="No" style="edgeLabel;html=1;align=center;verticalAlign=middle;resizable=0;points=[];" vertex="1" connectable="0" parent="3Ym4WqY_hZjeNqFPl6Wv-16">
          <mxGeometry x="-0.9166" y="-2" relative="1" as="geometry">
            <mxPoint x="1" as="offset" />
          </mxGeometry>
        </mxCell>
        <mxCell id="3Ym4WqY_hZjeNqFPl6Wv-20" style="edgeStyle=orthogonalEdgeStyle;rounded=0;orthogonalLoop=1;jettySize=auto;html=1;exitX=1;exitY=0.5;exitDx=0;exitDy=0;entryX=0.5;entryY=0;entryDx=0;entryDy=0;" edge="1" parent="3Ym4WqY_hZjeNqFPl6Wv-30" source="3Ym4WqY_hZjeNqFPl6Wv-14" target="Aem0WX8BvzpRNGFWT9OV-9">
          <mxGeometry relative="1" as="geometry" />
        </mxCell>
        <mxCell id="3Ym4WqY_hZjeNqFPl6Wv-22" value="Yes" style="edgeLabel;html=1;align=center;verticalAlign=middle;resizable=0;points=[];" vertex="1" connectable="0" parent="3Ym4WqY_hZjeNqFPl6Wv-20">
          <mxGeometry x="-0.5522" relative="1" as="geometry">
            <mxPoint as="offset" />
          </mxGeometry>
        </mxCell>
        <mxCell id="3Ym4WqY_hZjeNqFPl6Wv-14" value="reaction is not countdown" style="rhombus;whiteSpace=wrap;html=1;shadow=0;fontFamily=Helvetica;fontSize=12;align=center;strokeWidth=1;spacing=6;spacingTop=-4;" vertex="1" parent="3Ym4WqY_hZjeNqFPl6Wv-30">
          <mxGeometry x="410" y="250" width="100" height="80" as="geometry" />
        </mxCell>
        <mxCell id="3Ym4WqY_hZjeNqFPl6Wv-18" value="&lt;div&gt;&lt;span style=&quot;background-color: initial;&quot;&gt;Attack&lt;/span&gt;Block&lt;/div&gt;" style="rounded=1;whiteSpace=wrap;html=1;glass=0;strokeWidth=1;shadow=0;fillColor=#fff2cc;strokeColor=#d6b656;" vertex="1" parent="3Ym4WqY_hZjeNqFPl6Wv-30">
          <mxGeometry x="519.5" y="350" width="120" height="20" as="geometry" />
        </mxCell>
        <mxCell id="3Ym4WqY_hZjeNqFPl6Wv-19" value="AttackReposition" style="rounded=1;whiteSpace=wrap;html=1;glass=0;strokeWidth=1;shadow=0;fillColor=#fff2cc;strokeColor=#d6b656;" vertex="1" parent="3Ym4WqY_hZjeNqFPl6Wv-30">
          <mxGeometry x="530.5" y="370" width="120" height="20" as="geometry" />
        </mxCell>
        <mxCell id="3Ym4WqY_hZjeNqFPl6Wv-31" value="AttackHit" style="swimlane;whiteSpace=wrap;html=1;" vertex="1" collapsed="1" parent="WIyWlLk6GJQsqaUBKTNV-1">
          <mxGeometry x="840" y="380" width="140" height="30" as="geometry">
            <mxRectangle x="840" y="380" width="650" height="290" as="alternateBounds" />
          </mxGeometry>
        </mxCell>
        <mxCell id="lwHccidv2fWYTVkOevZk-40" value="" style="edgeStyle=orthogonalEdgeStyle;rounded=0;orthogonalLoop=1;jettySize=auto;html=1;exitX=0;exitY=0.5;exitDx=0;exitDy=0;entryX=0.5;entryY=0;entryDx=0;entryDy=0;" parent="3Ym4WqY_hZjeNqFPl6Wv-31" source="lwHccidv2fWYTVkOevZk-44" target="lwHccidv2fWYTVkOevZk-57" edge="1">
          <mxGeometry relative="1" as="geometry">
            <mxPoint x="345.5" y="105" as="sourcePoint" />
          </mxGeometry>
        </mxCell>
        <mxCell id="lwHccidv2fWYTVkOevZk-41" value="No" style="edgeLabel;html=1;align=center;verticalAlign=middle;resizable=0;points=[];" parent="lwHccidv2fWYTVkOevZk-40" vertex="1" connectable="0">
          <mxGeometry x="-0.0857" relative="1" as="geometry">
            <mxPoint as="offset" />
          </mxGeometry>
        </mxCell>
        <mxCell id="lwHccidv2fWYTVkOevZk-42" style="edgeStyle=orthogonalEdgeStyle;rounded=0;orthogonalLoop=1;jettySize=auto;html=1;entryX=0;entryY=0.5;entryDx=0;entryDy=0;" parent="3Ym4WqY_hZjeNqFPl6Wv-31" source="lwHccidv2fWYTVkOevZk-44" target="lwHccidv2fWYTVkOevZk-53" edge="1">
          <mxGeometry relative="1" as="geometry">
            <mxPoint x="509.5" y="160" as="targetPoint" />
          </mxGeometry>
        </mxCell>
        <mxCell id="lwHccidv2fWYTVkOevZk-43" value="Yes" style="edgeLabel;html=1;align=center;verticalAlign=middle;resizable=0;points=[];" parent="lwHccidv2fWYTVkOevZk-42" vertex="1" connectable="0">
          <mxGeometry x="-0.2889" relative="1" as="geometry">
            <mxPoint as="offset" />
          </mxGeometry>
        </mxCell>
        <mxCell id="lwHccidv2fWYTVkOevZk-44" value="&lt;br&gt;! IsAttacking&lt;br&gt;&amp;amp;&amp;amp;&lt;br&gt;! Attack&lt;div&gt;Range&lt;/div&gt;" style="rhombus;whiteSpace=wrap;html=1;shadow=0;fontFamily=Helvetica;fontSize=12;align=center;strokeWidth=1;spacing=6;spacingTop=-4;" parent="3Ym4WqY_hZjeNqFPl6Wv-31" vertex="1">
          <mxGeometry x="365.5" y="65" width="100" height="80" as="geometry" />
        </mxCell>
        <mxCell id="lwHccidv2fWYTVkOevZk-53" value="AttackCountDown" style="rounded=1;whiteSpace=wrap;html=1;fillColor=#fff2cc;strokeColor=#d6b656;" parent="3Ym4WqY_hZjeNqFPl6Wv-31" vertex="1">
          <mxGeometry x="509.5" y="95" width="120" height="20" as="geometry" />
        </mxCell>
        <mxCell id="ZE5Rv5s6aJjxz1UtuAFp-1" style="edgeStyle=orthogonalEdgeStyle;rounded=0;orthogonalLoop=1;jettySize=auto;html=1;" parent="3Ym4WqY_hZjeNqFPl6Wv-31" source="lwHccidv2fWYTVkOevZk-57" target="ZE5Rv5s6aJjxz1UtuAFp-0" edge="1">
          <mxGeometry relative="1" as="geometry" />
        </mxCell>
        <mxCell id="lwHccidv2fWYTVkOevZk-57" value="&lt;div&gt;UpdateAttack queue&lt;/div&gt;" style="rounded=0;whiteSpace=wrap;html=1;align=left;" parent="3Ym4WqY_hZjeNqFPl6Wv-31" vertex="1">
          <mxGeometry x="260.5" y="135" width="119" height="30" as="geometry" />
        </mxCell>
        <mxCell id="Aem0WX8BvzpRNGFWT9OV-18" style="edgeStyle=orthogonalEdgeStyle;rounded=0;orthogonalLoop=1;jettySize=auto;html=1;" parent="3Ym4WqY_hZjeNqFPl6Wv-31" source="Aem0WX8BvzpRNGFWT9OV-10" target="lwHccidv2fWYTVkOevZk-44" edge="1">
          <mxGeometry relative="1" as="geometry" />
        </mxCell>
        <mxCell id="Aem0WX8BvzpRNGFWT9OV-10" value="AttackHit" style="rounded=1;whiteSpace=wrap;html=1;glass=0;strokeWidth=1;shadow=0;fillColor=#d5e8d4;strokeColor=#82b366;" parent="3Ym4WqY_hZjeNqFPl6Wv-31" vertex="1">
          <mxGeometry x="111.5" y="30" width="120" height="20" as="geometry" />
        </mxCell>
        <mxCell id="Aem0WX8BvzpRNGFWT9OV-26" style="edgeStyle=orthogonalEdgeStyle;rounded=0;orthogonalLoop=1;jettySize=auto;html=1;entryX=0.5;entryY=1;entryDx=0;entryDy=0;exitX=0;exitY=0.5;exitDx=0;exitDy=0;" parent="3Ym4WqY_hZjeNqFPl6Wv-31" source="ZE5Rv5s6aJjxz1UtuAFp-0" target="Aem0WX8BvzpRNGFWT9OV-10" edge="1">
          <mxGeometry relative="1" as="geometry">
            <mxPoint x="219.5" y="270" as="sourcePoint" />
          </mxGeometry>
        </mxCell>
        <mxCell id="ZE5Rv5s6aJjxz1UtuAFp-3" value="No" style="edgeLabel;html=1;align=center;verticalAlign=middle;resizable=0;points=[];" parent="Aem0WX8BvzpRNGFWT9OV-26" vertex="1" connectable="0">
          <mxGeometry x="-0.9022" y="-1" relative="1" as="geometry">
            <mxPoint as="offset" />
          </mxGeometry>
        </mxCell>
        <mxCell id="ZE5Rv5s6aJjxz1UtuAFp-0" value="&lt;br&gt;queaue ended?" style="rhombus;whiteSpace=wrap;html=1;shadow=0;fontFamily=Helvetica;fontSize=12;align=center;strokeWidth=1;spacing=6;spacingTop=-4;" parent="3Ym4WqY_hZjeNqFPl6Wv-31" vertex="1">
          <mxGeometry x="270" y="210" width="100" height="80" as="geometry" />
        </mxCell>
        <mxCell id="ZE5Rv5s6aJjxz1UtuAFp-4" style="edgeStyle=orthogonalEdgeStyle;rounded=0;orthogonalLoop=1;jettySize=auto;html=1;exitX=1;exitY=0.5;exitDx=0;exitDy=0;entryX=0.442;entryY=0.05;entryDx=0;entryDy=0;entryPerimeter=0;" parent="3Ym4WqY_hZjeNqFPl6Wv-31" source="ZE5Rv5s6aJjxz1UtuAFp-0" target="lwHccidv2fWYTVkOevZk-53" edge="1">
          <mxGeometry relative="1" as="geometry">
            <Array as="points">
              <mxPoint x="639.5" y="250" />
              <mxPoint x="639.5" y="75" />
              <mxPoint x="562.5" y="75" />
            </Array>
          </mxGeometry>
        </mxCell>
        <mxCell id="ZE5Rv5s6aJjxz1UtuAFp-5" value="Yes" style="edgeLabel;html=1;align=center;verticalAlign=middle;resizable=0;points=[];" parent="ZE5Rv5s6aJjxz1UtuAFp-4" vertex="1" connectable="0">
          <mxGeometry x="-0.3821" relative="1" as="geometry">
            <mxPoint as="offset" />
          </mxGeometry>
        </mxCell>
        <mxCell id="3Ym4WqY_hZjeNqFPl6Wv-27" style="edgeStyle=orthogonalEdgeStyle;rounded=0;orthogonalLoop=1;jettySize=auto;html=1;exitX=0.5;exitY=1;exitDx=0;exitDy=0;" edge="1" parent="3Ym4WqY_hZjeNqFPl6Wv-31" source="3Ym4WqY_hZjeNqFPl6Wv-23" target="3Ym4WqY_hZjeNqFPl6Wv-26">
          <mxGeometry relative="1" as="geometry" />
        </mxCell>
        <mxCell id="3Ym4WqY_hZjeNqFPl6Wv-23" value="Enter" style="rounded=1;whiteSpace=wrap;html=1;glass=0;strokeWidth=1;shadow=0;fillColor=#d5e8d4;strokeColor=#82b366;" vertex="1" parent="3Ym4WqY_hZjeNqFPl6Wv-31">
          <mxGeometry x="50.5" y="30" width="39" height="20" as="geometry" />
        </mxCell>
        <mxCell id="3Ym4WqY_hZjeNqFPl6Wv-29" style="edgeStyle=orthogonalEdgeStyle;rounded=0;orthogonalLoop=1;jettySize=auto;html=1;exitX=0.75;exitY=0;exitDx=0;exitDy=0;entryX=0;entryY=0.5;entryDx=0;entryDy=0;" edge="1" parent="3Ym4WqY_hZjeNqFPl6Wv-31" source="3Ym4WqY_hZjeNqFPl6Wv-26" target="Aem0WX8BvzpRNGFWT9OV-10">
          <mxGeometry relative="1" as="geometry">
            <Array as="points">
              <mxPoint x="99.5" y="40" />
            </Array>
          </mxGeometry>
        </mxCell>
        <mxCell id="3Ym4WqY_hZjeNqFPl6Wv-26" value="&lt;div&gt;GetSequence&lt;/div&gt;" style="rounded=0;whiteSpace=wrap;html=1;align=left;" vertex="1" parent="3Ym4WqY_hZjeNqFPl6Wv-31">
          <mxGeometry x="10.5" y="65" width="119" height="30" as="geometry" />
        </mxCell>
        <mxCell id="3Ym4WqY_hZjeNqFPl6Wv-55" value="AttackReposition" style="swimlane;whiteSpace=wrap;html=1;" vertex="1" collapsed="1" parent="WIyWlLk6GJQsqaUBKTNV-1">
          <mxGeometry x="1000" y="380" width="140" height="30" as="geometry">
            <mxRectangle x="1000" y="380" width="584" height="300" as="alternateBounds" />
          </mxGeometry>
        </mxCell>
        <mxCell id="3Ym4WqY_hZjeNqFPl6Wv-41" style="edgeStyle=orthogonalEdgeStyle;rounded=0;orthogonalLoop=1;jettySize=auto;html=1;exitX=1;exitY=0.5;exitDx=0;exitDy=0;entryX=0.5;entryY=0;entryDx=0;entryDy=0;" edge="1" parent="3Ym4WqY_hZjeNqFPl6Wv-55" source="3Ym4WqY_hZjeNqFPl6Wv-35" target="3Ym4WqY_hZjeNqFPl6Wv-40">
          <mxGeometry relative="1" as="geometry" />
        </mxCell>
        <mxCell id="3Ym4WqY_hZjeNqFPl6Wv-35" value="AttackReposition" style="rounded=1;whiteSpace=wrap;html=1;glass=0;strokeWidth=1;shadow=0;fillColor=#d5e8d4;strokeColor=#82b366;" vertex="1" parent="3Ym4WqY_hZjeNqFPl6Wv-55">
          <mxGeometry x="115" y="30" width="120" height="20" as="geometry" />
        </mxCell>
        <mxCell id="3Ym4WqY_hZjeNqFPl6Wv-36" style="edgeStyle=orthogonalEdgeStyle;rounded=0;orthogonalLoop=1;jettySize=auto;html=1;exitX=0.5;exitY=1;exitDx=0;exitDy=0;" edge="1" parent="3Ym4WqY_hZjeNqFPl6Wv-55" source="3Ym4WqY_hZjeNqFPl6Wv-37" target="3Ym4WqY_hZjeNqFPl6Wv-39">
          <mxGeometry relative="1" as="geometry" />
        </mxCell>
        <mxCell id="3Ym4WqY_hZjeNqFPl6Wv-37" value="Enter" style="rounded=1;whiteSpace=wrap;html=1;glass=0;strokeWidth=1;shadow=0;fillColor=#d5e8d4;strokeColor=#82b366;" vertex="1" parent="3Ym4WqY_hZjeNqFPl6Wv-55">
          <mxGeometry x="54" y="30" width="39" height="20" as="geometry" />
        </mxCell>
        <mxCell id="3Ym4WqY_hZjeNqFPl6Wv-38" style="edgeStyle=orthogonalEdgeStyle;rounded=0;orthogonalLoop=1;jettySize=auto;html=1;exitX=0.75;exitY=0;exitDx=0;exitDy=0;entryX=0;entryY=0.5;entryDx=0;entryDy=0;" edge="1" parent="3Ym4WqY_hZjeNqFPl6Wv-55" source="3Ym4WqY_hZjeNqFPl6Wv-39" target="3Ym4WqY_hZjeNqFPl6Wv-35">
          <mxGeometry relative="1" as="geometry">
            <Array as="points">
              <mxPoint x="103" y="40" />
            </Array>
          </mxGeometry>
        </mxCell>
        <mxCell id="3Ym4WqY_hZjeNqFPl6Wv-39" value="&lt;div&gt;CreatePath&lt;/div&gt;" style="rounded=0;whiteSpace=wrap;html=1;align=left;" vertex="1" parent="3Ym4WqY_hZjeNqFPl6Wv-55">
          <mxGeometry x="14" y="65" width="119" height="30" as="geometry" />
        </mxCell>
        <mxCell id="3Ym4WqY_hZjeNqFPl6Wv-42" style="edgeStyle=orthogonalEdgeStyle;rounded=0;orthogonalLoop=1;jettySize=auto;html=1;exitX=0;exitY=0.5;exitDx=0;exitDy=0;entryX=0.5;entryY=0;entryDx=0;entryDy=0;" edge="1" parent="3Ym4WqY_hZjeNqFPl6Wv-55" source="3Ym4WqY_hZjeNqFPl6Wv-40" target="3Ym4WqY_hZjeNqFPl6Wv-45">
          <mxGeometry relative="1" as="geometry" />
        </mxCell>
        <mxCell id="3Ym4WqY_hZjeNqFPl6Wv-43" value="No" style="edgeLabel;html=1;align=center;verticalAlign=middle;resizable=0;points=[];" vertex="1" connectable="0" parent="3Ym4WqY_hZjeNqFPl6Wv-42">
          <mxGeometry x="-0.7143" y="1" relative="1" as="geometry">
            <mxPoint as="offset" />
          </mxGeometry>
        </mxCell>
        <mxCell id="3Ym4WqY_hZjeNqFPl6Wv-44" style="edgeStyle=orthogonalEdgeStyle;rounded=0;orthogonalLoop=1;jettySize=auto;html=1;entryX=0.5;entryY=0;entryDx=0;entryDy=0;" edge="1" parent="3Ym4WqY_hZjeNqFPl6Wv-55" source="3Ym4WqY_hZjeNqFPl6Wv-40" target="3Ym4WqY_hZjeNqFPl6Wv-49">
          <mxGeometry relative="1" as="geometry">
            <mxPoint x="564" y="80" as="targetPoint" />
            <mxPoint x="384" y="50" as="sourcePoint" />
          </mxGeometry>
        </mxCell>
        <mxCell id="3Ym4WqY_hZjeNqFPl6Wv-40" value="&lt;br&gt;timer &amp;gt;0" style="rhombus;whiteSpace=wrap;html=1;shadow=0;fontFamily=Helvetica;fontSize=12;align=center;strokeWidth=1;spacing=6;spacingTop=-4;" vertex="1" parent="3Ym4WqY_hZjeNqFPl6Wv-55">
          <mxGeometry x="274" y="60" width="100" height="80" as="geometry" />
        </mxCell>
        <mxCell id="3Ym4WqY_hZjeNqFPl6Wv-45" value="AttackCountDown" style="rounded=1;whiteSpace=wrap;html=1;fillColor=#fff2cc;strokeColor=#d6b656;" vertex="1" parent="3Ym4WqY_hZjeNqFPl6Wv-55">
          <mxGeometry x="181.5" y="250" width="120" height="20" as="geometry" />
        </mxCell>
        <mxCell id="3Ym4WqY_hZjeNqFPl6Wv-47" style="edgeStyle=orthogonalEdgeStyle;rounded=0;orthogonalLoop=1;jettySize=auto;html=1;exitX=0;exitY=0.5;exitDx=0;exitDy=0;entryX=0.5;entryY=0;entryDx=0;entryDy=0;" edge="1" parent="3Ym4WqY_hZjeNqFPl6Wv-55" source="3Ym4WqY_hZjeNqFPl6Wv-46" target="3Ym4WqY_hZjeNqFPl6Wv-45">
          <mxGeometry relative="1" as="geometry" />
        </mxCell>
        <mxCell id="3Ym4WqY_hZjeNqFPl6Wv-48" value="No" style="edgeLabel;html=1;align=center;verticalAlign=middle;resizable=0;points=[];" vertex="1" connectable="0" parent="3Ym4WqY_hZjeNqFPl6Wv-47">
          <mxGeometry x="-0.8211" relative="1" as="geometry">
            <mxPoint as="offset" />
          </mxGeometry>
        </mxCell>
        <mxCell id="3Ym4WqY_hZjeNqFPl6Wv-51" style="edgeStyle=orthogonalEdgeStyle;rounded=0;orthogonalLoop=1;jettySize=auto;html=1;exitX=1;exitY=0.5;exitDx=0;exitDy=0;entryX=0.5;entryY=1;entryDx=0;entryDy=0;" edge="1" parent="3Ym4WqY_hZjeNqFPl6Wv-55" source="3Ym4WqY_hZjeNqFPl6Wv-46" target="3Ym4WqY_hZjeNqFPl6Wv-35">
          <mxGeometry relative="1" as="geometry">
            <Array as="points">
              <mxPoint x="564" y="230" />
              <mxPoint x="564" y="290" />
              <mxPoint x="175" y="290" />
            </Array>
          </mxGeometry>
        </mxCell>
        <mxCell id="3Ym4WqY_hZjeNqFPl6Wv-52" value="Yes" style="edgeLabel;html=1;align=center;verticalAlign=middle;resizable=0;points=[];" vertex="1" connectable="0" parent="3Ym4WqY_hZjeNqFPl6Wv-51">
          <mxGeometry x="-0.9662" y="-1" relative="1" as="geometry">
            <mxPoint x="1" as="offset" />
          </mxGeometry>
        </mxCell>
        <mxCell id="3Ym4WqY_hZjeNqFPl6Wv-46" value="&lt;br&gt;IsFollownPath" style="rhombus;whiteSpace=wrap;html=1;shadow=0;fontFamily=Helvetica;fontSize=12;align=center;strokeWidth=1;spacing=6;spacingTop=-4;" vertex="1" parent="3Ym4WqY_hZjeNqFPl6Wv-55">
          <mxGeometry x="431" y="190" width="100" height="80" as="geometry" />
        </mxCell>
        <mxCell id="3Ym4WqY_hZjeNqFPl6Wv-49" value="&lt;div&gt;IsFollowingPath&lt;/div&gt;" style="rounded=0;whiteSpace=wrap;html=1;align=left;" vertex="1" parent="3Ym4WqY_hZjeNqFPl6Wv-55">
          <mxGeometry x="375" y="120" width="119" height="30" as="geometry" />
        </mxCell>
        <mxCell id="3Ym4WqY_hZjeNqFPl6Wv-54" style="edgeStyle=orthogonalEdgeStyle;rounded=0;orthogonalLoop=1;jettySize=auto;html=1;exitX=0.5;exitY=1;exitDx=0;exitDy=0;entryX=0.5;entryY=0;entryDx=0;entryDy=0;" edge="1" parent="3Ym4WqY_hZjeNqFPl6Wv-55" source="3Ym4WqY_hZjeNqFPl6Wv-53" target="3Ym4WqY_hZjeNqFPl6Wv-46">
          <mxGeometry relative="1" as="geometry" />
        </mxCell>
        <mxCell id="3Ym4WqY_hZjeNqFPl6Wv-53" value="&lt;div&gt;Dequeue points&lt;br&gt;CalculateInput(&lt;b&gt;target&lt;/b&gt;)&lt;/div&gt;" style="rounded=0;whiteSpace=wrap;html=1;align=left;" vertex="1" parent="3Ym4WqY_hZjeNqFPl6Wv-55">
          <mxGeometry x="414" y="140" width="130" height="30" as="geometry" />
        </mxCell>
      </root>
    </mxGraphModel>
  </diagram>
</mxfile>
